<svg xmlns="http://www.w3.org/2000/svg" width="43.05" height="50.748" viewBox="0 0 43.05 50.748">
  <path id="Union_8" data-name="Union 8" d="M3287.807-9.253a.809.809,0,0,1-.806-.808.809.809,0,0,1,.806-.808h3.312v-7.008a.575.575,0,0,1,.006-.072,1.344,1.344,0,0,1-1.278-1.339,1.344,1.344,0,0,1,.14-.6c-.619-.587-1.6-1.563-1.566-2.187.021-.41.039-.786.046-1.033a1.3,1.3,0,0,1-.732-1.168v-4.276a1.3,1.3,0,0,1,.856-1.221,1.287,1.287,0,0,1,.438-.076,1.3,1.3,0,0,1,.915.38,1.355,1.355,0,0,1,.192.248v-5.879l-.015-.081-1.275-.268.708-3.373a1.758,1.758,0,0,1,.752-1.107,5.869,5.869,0,0,1,.956-1.1,5.2,5.2,0,0,1,.852-.642c.04-.021.081-.046.122-.069h0v0c.049-.028.1-.056.15-.082l0,0,.017-.008.02-.01c.076-.041.155-.079.234-.115.031-.015.061-.028.094-.041.066-.03.135-.058.2-.084.026-.012.054-.021.082-.031.1-.038.2-.071.294-.1l.083-.023c.056-.018.112-.033.169-.046a.39.39,0,0,1,.048-.013v-1.52a5.021,5.021,0,0,1-2.6-3.888,1.3,1.3,0,0,1-1.211-1.26.086.086,0,0,1,0-.023,1.136,1.136,0,0,1,.071-.4s0,0,0-.007v0l0,0v0s0,0,0,0v0s0,0,0-.007v0s0,0,0,0v0s0,0,0,0,0,0,0,0,0,0,0,0a0,0,0,0,1,0,0,.007.007,0,0,1,0,0v0s0,0,0,0a.006.006,0,0,0,0,0s0,0,0,0,0,0,0,0v0s0,0,0,0v0a.005.005,0,0,0,0,0l0,0v0s0,0,0,0a.005.005,0,0,0,0,0s0,0,0,0a.017.017,0,0,0,0,0v0s0,0,0,0v0s0,0,0,0,0,0,0,0a.011.011,0,0,1,0-.007.007.007,0,0,1,0,0s0,0,0,0,0,0,0,0v0s0,0,0,0v0c.023-.043.049-.084.076-.123l.008-.012a.057.057,0,0,1,.008-.012s0,0,0-.007,0,0,0-.007l0,0s0,0,0-.007h0s0,0,0,0,0,0,0-.007h0s0,0,0,0,0,0,0,0a0,0,0,0,1,0,0,0,0,0,0,1,0,0s0,0,0,0v0l0,0a0,0,0,0,1,0,0s0,0,0,0a0,0,0,0,0,0,0,.015.015,0,0,0,0,0h0s0,0,0,0,0,0,0,0,0,0,0,0,0,0,0,0,0,0,0,0,0,0,0,0l0,0v0s0,0,.005,0v0s0,0,0,0a.009.009,0,0,0,0,0h0s0,0,0,0,0,0,0,0,0,0,0,0a0,0,0,0,0,0,0l.01-.01v0a.043.043,0,0,0,.01-.01l.01-.01a1.228,1.228,0,0,1,.788-.357l-.008-.489,0-.193c0-.02,0-.038,0-.058l-.06-3.011a2.116,2.116,0,0,1,1.616-2.169.6.6,0,0,1,.208-.03,4.961,4.961,0,0,1,.918-.652v-2.712a.491.491,0,0,1,.49-.494h35.367a.493.493,0,0,1,.492.494v27.793a.447.447,0,0,1,.069.237v.125h-.036a.816.816,0,0,1,.036.239v.012a.8.8,0,0,1-.8.8h-29.333v4.23l2.343,0h.488a1.979,1.979,0,0,1,.732.138h4.314l.482,0a1.72,1.72,0,0,1,1.7,1.2s2.7,11.694,2.868,12.5a2.52,2.52,0,0,1,.354.059l.021-.021-.021.021a2.309,2.309,0,0,1,.543.212l.016-.02-.016.02a2.195,2.195,0,0,1,.979,1.1h2.463a.81.81,0,0,1,.808.808.811.811,0,0,1-.808.808Zm12.3-10.035a1.344,1.344,0,0,1-1.3,1.339.321.321,0,0,1,.008.072v7.008h4.226v-1.323h-.055a.517.517,0,0,1-.5-.4l-1.507-7.523a.519.519,0,0,0-.226-.321h-1.295A1.343,1.343,0,0,1,3300.109-19.288Zm-8.214,8.419h6.144v-2.86H3291.9Zm16.708-.79v-.533h-.344l-1.747-8.245h-1.025l1.864,8.061a.463.463,0,0,1,.018.15,2.3,2.3,0,0,1,.263.049l.021-.021-.021.021a2.276,2.276,0,0,1,.543.212l.018-.02-.018.02A2.183,2.183,0,0,1,3308.6-11.658ZM3291.9-17.876V-14.5h6.144v-3.371a.363.363,0,0,1,.006-.072h-6.158A.365.365,0,0,1,3291.9-17.876Zm-1.528-2.47a1.325,1.325,0,0,1,.816-.281h1.042a2.947,2.947,0,0,1-2.089-2.822V-23.6a1.294,1.294,0,0,1-1.107.63,1.314,1.314,0,0,1-.37-.054Zm9.548-11.572H3329V-58.034h-33.4v.645c.107-.01.216-.015.324-.018l4.29-.081a2.487,2.487,0,0,1,2.521,2.432,2.524,2.524,0,0,1-1.89,2.486,4.153,4.153,0,0,1,.113.449,6.122,6.122,0,0,1,.1,1.051l.052,2.759a5.028,5.028,0,0,1-4.061,5.008,1.6,1.6,0,0,1-.2.033c-.074.013-.15.025-.226.033l0,1.167a2.614,2.614,0,0,1,.288.11c.081.036.159.074.235.115l.02.01.017.008,0,0,.15.082v0h0c.042.023.081.048.122.069.024.015.047.031.072.044l.023.016c.043.025.084.053.124.081a1.755,1.755,0,0,1,.406.26l4.749,3.585-.286.392,7.9,2.152a1.261,1.261,0,0,1,.059-.271.345.345,0,0,1,.042-.1,1.177,1.177,0,0,1,.523-.555l1.088-1.137a.317.317,0,0,1,.431-.025l.372-.928a.237.237,0,0,1,.306-.133l.587.227a.239.239,0,0,1,.135.311l-.413,1.032.67-.184a.317.317,0,0,1,.39.222.319.319,0,0,1-.222.392l-1.133.311-.066.165,1.3-.359a.319.319,0,0,1,.39.222.319.319,0,0,1-.222.39l-1.379.38a1.237,1.237,0,0,1-.025.248l1.214-.334a.319.319,0,0,1,.39.222.318.318,0,0,1-.222.39l-2.1.579a1.027,1.027,0,0,1-.113.038l-.52.143a1.175,1.175,0,0,1-1.44-.821c-.01-.036-.018-.074-.024-.11a15.369,15.369,0,0,1-5.283.008,11.262,11.262,0,0,1-3.4-1.415l-1.168,1.6-.694-.513Zm12.3-4.429.023-.007.013-.031Zm-17.6-22.235a.5.5,0,0,1,.431-.433h-.431Zm27.693,17.63a1.542,1.542,0,0,1-.3-.989,1.565,1.565,0,0,1,.334-1.066,1.168,1.168,0,0,1,.923-.382,1.39,1.39,0,0,1,.819.225,1.042,1.042,0,0,1,.377.793h-.712a.612.612,0,0,0-.1-.268.42.42,0,0,0-.364-.161.48.48,0,0,0-.48.349,1.45,1.45,0,0,0-.069.494,1.326,1.326,0,0,0,.069.471.463.463,0,0,0,.469.332.411.411,0,0,0,.345-.132.657.657,0,0,0,.125-.342h.71a1.147,1.147,0,0,1-.23.6,1.112,1.112,0,0,1-.969.457A1.131,1.131,0,0,1,3322.308-40.952Zm-13.89.164a.736.736,0,0,1-.235-.584.76.76,0,0,1,.378-.711,1.693,1.693,0,0,1,.61-.171l.237-.028a1.051,1.051,0,0,0,.275-.062.206.206,0,0,0,.15-.2.234.234,0,0,0-.114-.225.717.717,0,0,0-.334-.063.438.438,0,0,0-.349.122.507.507,0,0,0-.1.245h-.671a1.022,1.022,0,0,1,.194-.574,1.14,1.14,0,0,1,.948-.352,1.667,1.667,0,0,1,.776.174.662.662,0,0,1,.339.653v1.221c0,.086,0,.188,0,.308a.4.4,0,0,0,.042.186.251.251,0,0,0,.1.081v.1h-.757a.737.737,0,0,1-.044-.151c-.008-.046-.015-.1-.02-.161a1.343,1.343,0,0,1-.332.267.982.982,0,0,1-.507.13A.868.868,0,0,1,3308.418-40.788Zm1.28-1.1a1.246,1.246,0,0,1-.186.048l-.157.028a1.052,1.052,0,0,0-.314.1.322.322,0,0,0-.161.3.309.309,0,0,0,.1.257.366.366,0,0,0,.24.081.708.708,0,0,0,.415-.133.558.558,0,0,0,.2-.48v-.258A.778.778,0,0,1,3309.7-41.89Zm6.341,1.165a1.047,1.047,0,0,1-.26-.273v.334h-.681v-3.593h.694v1.28a.975.975,0,0,1,.29-.283.861.861,0,0,1,.479-.123.99.99,0,0,1,.823.378,1.541,1.541,0,0,1,.3.977,1.733,1.733,0,0,1-.293,1.028.952.952,0,0,1-.818.406A.941.941,0,0,1,3316.039-40.725Zm-.2-1.706a1.278,1.278,0,0,0-.074.474,1,1,0,0,0,.151.566.522.522,0,0,0,.462.225.479.479,0,0,0,.418-.217,1,1,0,0,0,.148-.573,1.321,1.321,0,0,0-.073-.469.512.512,0,0,0-.513-.35A.52.52,0,0,0,3315.843-42.431Zm-3.188,1.514v-.857h-.857v-.3h.857v-.856h.3v.856h.857v.3h-.857v.857Zm6.3-.438v-.3h1.759v.3Zm0-.8v-.3h1.759v.3Z" transform="translate(-3287 60.001)" fill="#74267d"/>
</svg>
