<svg xmlns="http://www.w3.org/2000/svg" width="43.287" height="47.824" viewBox="0 0 43.287 47.824">
  <g id="cocuk" transform="translate(3590.5 -170.949)">
    <path id="Path_206" data-name="Path 206" d="M16.174,47.223V45.888l-3.337-.412.135-1.094h0l0-.026.116-.939H6.658v3.807a.6.6,0,1,1-1.2,0V37.136a2.078,2.078,0,0,1-1.971-2.068,2.052,2.052,0,0,1,.306-1.08,4.029,4.029,0,0,1-1.653-3.465c.027-.533.05-1.029.064-1.4a2.009,2.009,0,0,1-1.989-2V20.509a2,2,0,1,1,4.007,0V27.12A2.011,2.011,0,0,1,2.54,29.1l2.527,3.959A2.061,2.061,0,0,1,5.556,33H7.482a3.158,3.158,0,0,1-.957-1.462l-.007-.028-.081.013-1.1-8.042a5.331,5.331,0,0,1,.891-3.745l-.29-.2A5.738,5.738,0,0,1,7,18.624a6.124,6.124,0,0,1,1.751-1.006l-.02-.147a6.89,6.89,0,0,1-3.714-1.292,6.974,6.974,0,0,1-3.958-3.44L.79,12.2A7,7,0,0,1,3.726,2.749l1.017-.562a6.763,6.763,0,0,1,1.166-.464,2.812,2.812,0,0,1,4.815-.636A3.227,3.227,0,1,1,14.86,6.041a6.327,6.327,0,0,1,.314.874l.544,1.964a1.443,1.443,0,0,1,.02.293.366.366,0,0,0,.011.076,5.957,5.957,0,0,1,.135,1.055,7.032,7.032,0,0,1-.09,1.484,6.762,6.762,0,0,1-4.652,5.348l.039.284a7.044,7.044,0,0,1,1.333.353c0,.015,0,.032-.006.048q.324.1.66.246l.068.024,1.575.75a1.891,1.891,0,0,1,1.131,1.683l1.446.24.047-.571.044-.5.41.284.745.516-.747.352.016,0,.736-.347.24.509,7,1.162.115-1.035c1.685-.541,3.724-1.318,4.217.374l4.706-1.288-.292-1.928h.139l-.884-2.559,1.359-.47.48,1.391-.2-1.733,1.427-.165.408,3.535h1.841l-.319,2.11,2.37-.647a1.483,1.483,0,0,1,.781,2.862l-5.289,1.444v21.4h5.446a1.1,1.1,0,0,1,0,2.209H22.945a1.1,1.1,0,0,1,0-2.209H34.528v-20.8L20.646,28.458a1.483,1.483,0,1,1-.781-2.862l2.127-.581-.1-.308-.015,0-.275-.844,4.216-1.154.046-.413a13.615,13.615,0,0,1-5.814,0,.3.3,0,0,1-.109.125l-.3.2.059.125.371-.245a.307.307,0,1,1,.337.512l-.444.293.1.207.261-.172a.307.307,0,1,1,.337.513l-.334.22.21.446-1.3.613-.123-.26-.215.142a1.109,1.109,0,0,1-.1.072l-.436.287a1.137,1.137,0,0,1-1.572-.323l0-.006c-.2.111-.421.229-.668.346l.8,4.357c.195.037.391.077.588.118l2.019.318a1.43,1.43,0,0,1-.041.2,4.269,4.269,0,0,1,1.34.659c1.452,1.246,2.723,6.011,3.158,7.8l.643-.164.311,1.219a2.375,2.375,0,0,1,2.084,1.857l.024.1-5.339,1.362-.636-2.492.023-.006c-.114-.477-.222-.925-.259-1.07l.519-.132c-.531-1.942-1.359-4.468-2.307-5.569a2.072,2.072,0,0,1-1.673,3.19v5.346a.6.6,0,0,1,0,.664v.612a2.392,2.392,0,0,1,.942,2.292l-.012.1-.931-.115v1.187a.6.6,0,1,1-1.2,0Zm-2.9-5.009c.024-.174.042-.309.051-.379l.532.066a24.988,24.988,0,0,0,.134-4.762H6.658v5.075Zm3.339-17.926a1.133,1.133,0,0,1,.5-.807l.222-.147.52-1.077.011-.02-.346-.734c-.6-.246-1.135-.5-1.589-.718a1.638,1.638,0,0,1-.1.415,1.868,1.868,0,0,1-.4.618,6.771,6.771,0,0,1,.195.934l.255,1.389Zm17.458-9.459.1-.49.377.326.687.593-1.33.459Zm1.831-.748.2-.457.3.4.542.727-1.4.161Z" transform="translate(-3590.5 170.949)" fill="#74267d"/>
  </g>
</svg>
