<svg xmlns="http://www.w3.org/2000/svg" width="44.698" height="45.753" viewBox="0 0 44.698 45.753">
  <path id="yönetici" d="M3328.384-14.247v-4.362h-15.231c-.338,1.134-.6,1.992-.6,1.992l-.024.015c.378.978,1.758,1.429,2.564,1.557.859.138.859.756.859.756l-5.353.01c-.418-.206-.247-2.183-.247-2.183l.012-.008a4.53,4.53,0,0,1-.507-.183s-.069-.742-.122-1.956h-2.858c-.335,1.134-.6,1.992-.6,1.992a.226.226,0,0,0-.025.015c.378.978,1.758,1.429,2.564,1.557.859.138.859.756.859.756l-5.353.01c-.418-.206-.247-2.183-.247-2.183l.012-.008a4.524,4.524,0,0,1-.507-.183s-.069-.742-.122-1.956h-5.86v4.362h-.787v-4.362h-2.88v4.362h-.785v-4.362h-4.023v4.362H3287V-41.978h10.364a2.843,2.843,0,0,1-1.078-.5,1.248,1.248,0,0,1-.355-1.1,49.215,49.215,0,0,1,4.843-7.3,4.845,4.845,0,0,1,1.881-1v0c.713-.224,1.409-.4,2.084-.545a2.421,2.421,0,0,1,.621-.464,5.909,5.909,0,0,0,.275-1.136,3.194,3.194,0,0,0,.018-.467c-.013-.028-.026-.058-.039-.087a15.869,15.869,0,0,0-1.063-1.914,2.62,2.62,0,0,1,1.32-3.129.025.025,0,0,1-.01-.015c-.024-.053-.105-.049-.105-.049a.6.6,0,0,1,.293.008s0-.011.021-.021a.477.477,0,0,1,.2-.25.548.548,0,0,0-.1.2,3.635,3.635,0,0,1,1.274-.244,2.1,2.1,0,0,1,1.021.234,6.682,6.682,0,0,0,1.89.7c-.007.068.042,1.421-.649,1.6a.079.079,0,0,1-.054.072c.155,1.024.04,3.857-.723,3.985,0,0-.056.007-.153.013l-.063.642a1.052,1.052,0,0,1,.779.11v0a7.879,7.879,0,0,1,1.361.331,4.312,4.312,0,0,1,.981.459v.018l0,0c.53.4,3.188,6.807,3.6,7.009a13.834,13.834,0,0,0,1.61.361l1.088-8.339H3331.7l-1.138,8.719h-3.5l.322,2.1h3.12v1.794h0v25.937Zm-23.754-25.937h0Zm17.275-3.381a6,6,0,0,1,1.669.789,3.093,3.093,0,0,1,.476.8h.25l-.321-2.1h-4.967a15.765,15.765,0,0,1,2.419.588,1.4,1.4,0,0,1,.395-.086A.282.282,0,0,1,3321.9-43.565Zm-1.529,1.587h.662a.022.022,0,0,0-.01,0,.755.755,0,0,1-.194-.066C3320.71-42.019,3320.555-42,3320.375-41.978Zm-8.53,0h3.526a6.459,6.459,0,0,1-1.229-.145,13.337,13.337,0,0,1-2.287-2.575h0a.143.143,0,0,0-.012-.016Zm-3.8,0h0c.063-.81.11-1.58.113-2.061C3308.158-43.616,3308.118-42.923,3308.046-41.978Zm-8.634-2.071,3.134.337c0-.012,0-.025-.006-.036a.22.22,0,0,1-.007-.031s0-.008,0-.013a16.258,16.258,0,0,1-.232-2.295.213.213,0,0,0,0-.03c0-.015,0-.031,0-.048a.49.49,0,0,0,0-.053v-.028c0-.018,0-.038,0-.056a.092.092,0,0,1,0-.023c0-.023,0-.044,0-.067v-.018c0-.025,0-.048,0-.071V-46.5c0-.025,0-.049,0-.074v-.056C3301.226-45.6,3299.412-44.049,3299.412-44.049Zm10.6.105c0-.023,0-.046,0-.069C3310.007-43.99,3310.009-43.967,3310.01-43.944Zm0-.072c0-.023,0-.044,0-.068C3310-44.061,3310-44.039,3310.005-44.016Zm-1.843-.117c0-1.35-.188-4.69-.273-6.125C3307.973-48.821,3308.162-45.477,3308.162-44.133Zm1.833-.03c0-.02,0-.038,0-.056C3309.992-44.2,3309.992-44.182,3310-44.163Zm-.007-.076c0-.016,0-.031,0-.046C3309.985-44.27,3309.987-44.255,3309.989-44.238Zm-.006-.077a.206.206,0,0,1,0-.033A.206.206,0,0,0,3309.982-44.316Zm-.008-.076a.08.08,0,0,0,0-.021A.08.08,0,0,1,3309.974-44.391Zm-1.263-8.337h0v-.02Z" transform="translate(-3287.001 60)" fill="#74267d"/>
</svg>
